<svg xmlns="http://www.w3.org/2000/svg" enable-background="new 0 0 100 100" viewBox="0 0 100 100"><path d="M52.101,38.831c-6.132,0-11.64,3.761-13.951,9.333c-6.869-2.803-14.839,2.644-14.695,10.079
		c-0.011,1.088,0.071,2.951,1.61,2.926c0,0,49.858,0,49.858,0c1.529,0.022,1.627-1.836,1.61-2.926
		c0-5.958-4.846-10.805-10.802-10.808C63.229,42.174,57.991,38.831,52.101,38.831z M73.558,58.194H26.429
		c0.026-4.297,3.53-7.785,7.834-7.785c1.395,0,2.772,0.38,3.982,1.098c0.398,0.237,0.882,0.274,1.311,0.103
		c0.429-0.171,0.754-0.533,0.88-0.977c1.471-5.198,6.268-8.828,11.666-8.828c5.019,0,9.451,3.026,11.289,7.707
		c0.244,0.62,0.864,1.016,1.531,0.936C69.477,49.959,73.558,53.612,73.558,58.194z"/><path d="M84.466,25.947c-0.061-0.286-0.208-0.55-0.407-0.759L66.807,7.937C66.527,7.669,66.148,7.5,65.755,7.5H16.979
		c-0.822,0-1.487,0.666-1.487,1.487v82.025c0,0.821,0.666,1.487,1.487,1.487h66.03c0.822,0,1.487-0.666,1.487-1.487
		C84.436,90.641,84.574,26.266,84.466,25.947z M67.242,12.578l12.175,12.175H67.242V12.578z M81.521,89.525H18.466V10.475h45.802
		V26.24c0,0.821,0.666,1.487,1.487,1.487h15.766V89.525z"/></svg>