<?xml version="1.0" encoding="UTF-8"?>
<svg xmlns="http://www.w3.org/2000/svg" xmlns:xlink="http://www.w3.org/1999/xlink" width="1080px" height="1080px" viewBox="0 0 1080 1080" version="1.1">
<g id="surface1">
<path style=" stroke:none;fill-rule:nonzero;fill:rgb(0%,0%,0%);fill-opacity:1;" d="M 328.320312 588.382812 L 297 606.097656 L 295.921875 617.328125 C 295.273438 623.59375 295.273438 628.558594 295.703125 628.558594 C 297.214844 628.558594 357.046875 595.945312 359.207031 594 C 360.289062 593.136719 360.71875 587.519531 360.289062 581.472656 L 359.640625 570.457031 Z M 328.320312 588.382812 "/>
<path style=" stroke:none;fill-rule:nonzero;fill:rgb(0%,0%,0%);fill-opacity:1;" d="M 475.199219 586.222656 C 475.199219 592.488281 476.28125 594.433594 481.679688 597.238281 C 485.136719 598.96875 488.59375 600.480469 489.238281 600.480469 C 489.886719 600.480469 490.320312 595.945312 489.886719 590.113281 C 489.238281 580.390625 489.023438 579.960938 482.328125 579.3125 C 475.414062 578.664062 475.199219 578.878906 475.199219 586.222656 Z M 475.199219 586.222656 "/>
<path style=" stroke:none;fill-rule:nonzero;fill:rgb(0%,0%,0%);fill-opacity:1;" d="M 432 587.953125 C 429.625 591.839844 427.679688 595.511719 427.679688 596.160156 C 427.679688 597.023438 439.34375 603.71875 488.808594 631.367188 L 503.496094 639.574219 L 502.847656 627.480469 L 502.199219 615.167969 L 470.878906 598.105469 C 453.601562 588.816406 438.910156 581.039062 437.832031 581.039062 C 436.96875 581.039062 434.375 584.28125 432 587.953125 Z M 432 587.953125 "/>
<path style=" stroke:none;fill-rule:nonzero;fill:rgb(0%,0%,0%);fill-opacity:1;" d="M 527.039062 605.664062 C 527.039062 619.488281 527.902344 628.558594 529.199219 628.558594 C 530.496094 628.558594 531.359375 625.105469 531.359375 621 C 531.359375 613.871094 531.792969 613.441406 538.703125 613.441406 C 544.753906 613.441406 547.34375 614.953125 552.097656 621 C 555.121094 625.105469 558.792969 628.558594 559.871094 628.558594 C 561.167969 628.558594 559.65625 625.320312 556.632812 621.433594 L 551.230469 614.304688 L 556.414062 608.472656 C 567.214844 595.945312 560.519531 585.574219 540.433594 583.847656 L 527.039062 582.550781 Z M 554.039062 591.839844 C 562.03125 600.695312 553.390625 611.28125 537.625 611.28125 C 531.359375 611.28125 531.359375 611.0625 531.359375 599.398438 L 531.359375 587.519531 L 540.648438 587.519531 C 547.34375 587.519531 551.230469 588.816406 554.039062 591.839844 Z M 554.039062 591.839844 "/>
<path style=" stroke:none;fill-rule:nonzero;fill:rgb(0%,0%,0%);fill-opacity:1;" d="M 572.398438 605.878906 L 572.398438 628.558594 L 588.601562 628.558594 C 597.886719 628.558594 604.800781 627.695312 604.800781 626.398438 C 604.800781 625.105469 598.753906 624.238281 590.761719 624.238281 L 576.71875 624.238281 L 576.71875 606.960938 L 589.246094 606.527344 L 601.558594 606.3125 L 577.800781 603.71875 L 577.152344 595.511719 L 576.503906 587.519531 L 589.464844 587.519531 C 596.808594 587.519531 602.640625 586.65625 602.640625 585.359375 C 602.640625 584.0625 596.160156 583.199219 587.519531 583.199219 L 572.398438 583.199219 Z M 572.398438 605.878906 "/>
<path style=" stroke:none;fill-rule:nonzero;fill:rgb(0%,0%,0%);fill-opacity:1;" d="M 615.601562 605.878906 C 615.601562 619.488281 616.464844 628.558594 617.761719 628.558594 C 619.054688 628.558594 619.921875 621.433594 619.921875 611.28125 C 619.921875 601.777344 620.566406 594 621.648438 594 C 622.511719 594.214844 628.992188 601.777344 636.121094 611.28125 C 643.246094 620.566406 649.726562 628.34375 650.808594 628.34375 C 651.671875 628.558594 652.105469 618.191406 651.886719 605.230469 C 651.457031 583.199219 651.457031 582.984375 650.808594 599.832031 C 650.375 609.769531 649.296875 617.761719 648.214844 617.761719 C 647.351562 617.761719 640.441406 609.984375 632.878906 600.480469 C 625.320312 590.976562 618.40625 583.199219 617.542969 583.199219 C 616.464844 583.199219 615.601562 593.351562 615.601562 605.878906 Z M 615.601562 605.878906 "/>
<path style=" stroke:none;fill-rule:nonzero;fill:rgb(0%,0%,0%);fill-opacity:1;" d="M 660.960938 585.359375 C 660.960938 586.441406 664.414062 587.519531 668.519531 587.519531 L 676.078125 587.519531 L 676.078125 608.039062 C 676.078125 620.351562 676.945312 628.558594 678.238281 628.558594 C 679.535156 628.558594 680.398438 620.351562 680.398438 608.039062 L 680.398438 587.519531 L 689.257812 587.519531 C 694.441406 587.519531 697.464844 586.65625 696.601562 585.359375 C 695.953125 584.0625 687.527344 583.199219 678.023438 583.199219 C 668.089844 583.199219 660.960938 584.0625 660.960938 585.359375 Z M 660.960938 585.359375 "/>
<path style=" stroke:none;fill-rule:nonzero;fill:rgb(0%,0%,0%);fill-opacity:1;" d="M 721.441406 605.664062 C 721.441406 619.488281 722.304688 628.558594 723.601562 628.558594 C 724.894531 628.558594 725.761719 625.105469 725.761719 621 L 725.761719 613.441406 L 736.128906 613.441406 C 749.519531 613.441406 756 608.902344 756 599.617188 C 756 589.246094 749.734375 584.710938 734.398438 583.632812 L 721.441406 582.769531 Z M 747.574219 589.679688 C 750.167969 591.191406 751.679688 594.214844 751.679688 598.320312 C 751.679688 606.3125 743.902344 611.929688 733.96875 610.847656 C 727.054688 610.199219 726.839844 609.984375 726.191406 598.753906 L 725.542969 587.519531 L 734.398438 587.519531 C 739.367188 587.519531 745.199219 588.601562 747.574219 589.679688 Z M 747.574219 589.679688 "/>
<path style=" stroke:none;fill-rule:nonzero;fill:rgb(0%,0%,0%);fill-opacity:1;" d="M 769.175781 606.3125 C 769.390625 619.921875 770.039062 626.398438 770.902344 622.078125 C 771.984375 615.167969 772.847656 614.519531 780.191406 613.871094 C 787.320312 613.222656 788.832031 614.089844 793.152344 620.785156 C 795.960938 625.105469 799.414062 628.558594 800.929688 628.558594 C 802.65625 628.558594 801.359375 625.535156 797.902344 620.785156 C 792.289062 613.65625 792.070312 612.792969 795.742188 610.847656 C 800.929688 607.824219 803.304688 600.480469 800.929688 593.566406 C 798.550781 587.089844 789.910156 583.199219 777.382812 583.199219 L 768.960938 583.199219 Z M 794.878906 591.839844 C 803.953125 600.910156 797.902344 609.769531 782.785156 609.984375 L 772.199219 610.199219 L 771.550781 598.753906 L 770.902344 587.519531 L 780.625 587.519531 C 787.753906 587.519531 791.855469 588.816406 794.878906 591.839844 Z M 794.878906 591.839844 "/>
<path style=" stroke:none;fill-rule:nonzero;fill:rgb(0%,0%,0%);fill-opacity:1;" d="M 824.039062 585.144531 C 815.617188 588.601562 811.078125 596.160156 811.078125 606.3125 C 811.078125 614.519531 812.160156 616.894531 818.207031 622.296875 C 837 639.144531 865.945312 618.625 854.496094 596.375 C 848.878906 585.574219 835.273438 580.609375 824.039062 585.144531 Z M 846.9375 593.785156 C 853.632812 600.480469 854.710938 606.527344 850.609375 614.089844 C 846.9375 621 842.183594 624.023438 834.40625 624.238281 C 824.6875 624.238281 821.015625 622.296875 817.558594 615.382812 C 813.023438 606.742188 813.457031 601.777344 819.9375 594.214844 C 827.496094 585.144531 838.078125 584.929688 846.9375 593.785156 Z M 846.9375 593.785156 "/>
<path style=" stroke:none;fill-rule:nonzero;fill:rgb(0%,0%,0%);fill-opacity:1;" d="M 418.175781 614.734375 C 416.230469 619.054688 414.71875 622.726562 415.152344 623.160156 C 417.3125 624.671875 443.230469 639.359375 444.097656 639.359375 C 444.527344 639.359375 444.960938 634.609375 444.960938 628.558594 C 444.960938 618.40625 444.742188 617.761719 435.671875 612.359375 C 430.488281 609.335938 425.304688 606.960938 424.007812 606.960938 C 422.929688 606.960938 420.335938 610.414062 418.175781 614.734375 Z M 418.175781 614.734375 "/>
<path style=" stroke:none;fill-rule:nonzero;fill:rgb(0%,0%,0%);fill-opacity:1;" d="M 503.0625 653.617188 C 502.414062 657.9375 503.710938 666.359375 505.007812 667.871094 C 505.871094 668.734375 506.519531 665.929688 506.304688 661.824219 C 506.089844 655.128906 503.710938 648.863281 503.0625 653.617188 Z M 503.0625 653.617188 "/>
<path style=" stroke:none;fill-rule:nonzero;fill:rgb(0%,0%,0%);fill-opacity:1;" d="M 380.59375 664.199219 C 380.375 670.03125 381.023438 673.921875 381.886719 672.625 C 382.753906 671.328125 384.910156 669.601562 386.640625 668.953125 C 389.230469 668.089844 389.230469 667.65625 386.207031 667.65625 C 383.832031 667.441406 382.320312 665.0625 381.671875 660.3125 C 381.023438 655.34375 380.808594 656.425781 380.59375 664.199219 Z M 380.59375 664.199219 "/>
<path style=" stroke:none;fill-rule:nonzero;fill:rgb(0%,0%,0%);fill-opacity:1;" d="M 387.289062 659.664062 C 388.800781 662.6875 390.097656 664.632812 390.527344 664.199219 C 392.039062 662.902344 388.585938 654.480469 386.640625 654.480469 C 385.777344 654.480469 385.992188 656.855469 387.289062 659.664062 Z M 387.289062 659.664062 "/>
<path style=" stroke:none;fill-rule:nonzero;fill:rgb(0%,0%,0%);fill-opacity:1;" d="M 419.902344 657.503906 C 417.742188 663.121094 419.902344 668.519531 424.441406 668.519531 C 427.894531 668.519531 428.761719 667.007812 428.761719 662.039062 C 428.761719 654.910156 422.28125 651.457031 419.902344 657.503906 Z M 427.679688 662.039062 C 427.679688 665.496094 426.382812 667.441406 424.441406 667.441406 C 422.496094 667.441406 421.199219 665.496094 421.199219 662.039062 C 421.199219 658.585938 422.496094 656.640625 424.441406 656.640625 C 426.382812 656.640625 427.679688 658.585938 427.679688 662.039062 Z M 427.679688 662.039062 "/>
<path style=" stroke:none;fill-rule:nonzero;fill:rgb(0%,0%,0%);fill-opacity:1;" d="M 444.3125 655.992188 C 443.449219 656.640625 442.800781 661.390625 443.015625 666.144531 C 443.015625 671.113281 443.664062 673.703125 444.3125 672.191406 C 444.742188 670.894531 446.6875 669.601562 448.414062 669.601562 C 450.144531 669.601562 451.441406 668.734375 451.441406 667.441406 C 451.441406 666.359375 449.929688 665.929688 448.199219 666.574219 C 445.824219 667.65625 444.960938 666.359375 444.960938 662.039062 C 444.960938 657.71875 445.824219 656.425781 448.414062 657.503906 C 450.144531 658.152344 451.007812 657.9375 450.359375 656.640625 C 448.847656 654.046875 446.257812 653.832031 444.3125 655.992188 Z M 444.3125 655.992188 "/>
<path style=" stroke:none;fill-rule:nonzero;fill:rgb(0%,0%,0%);fill-opacity:1;" d="M 465.265625 657.503906 C 463.320312 662.472656 465.265625 668.519531 468.71875 668.734375 C 470.664062 668.734375 470.878906 668.519531 469.367188 668.089844 C 465.265625 666.792969 465.910156 663.550781 470.449219 662.472656 C 473.902344 661.609375 473.902344 661.390625 470.449219 661.175781 C 468.289062 661.175781 466.558594 659.878906 466.558594 658.585938 C 466.558594 657.289062 468.070312 656.855469 470.015625 657.503906 C 471.742188 658.152344 472.609375 657.9375 471.960938 656.640625 C 470.015625 653.398438 466.558594 654.046875 465.265625 657.503906 Z M 465.265625 657.503906 "/>
<path style=" stroke:none;fill-rule:nonzero;fill:rgb(0%,0%,0%);fill-opacity:1;" d="M 486 662.039062 C 486 666.144531 486.433594 669.601562 486.863281 669.601562 C 487.296875 669.601562 488.160156 666.144531 488.59375 662.039062 C 489.023438 657.9375 488.59375 654.480469 487.726562 654.480469 C 486.863281 654.480469 486 657.9375 486 662.039062 Z M 486 662.039062 "/>
<path style=" stroke:none;fill-rule:nonzero;fill:rgb(0%,0%,0%);fill-opacity:1;" d="M 555.550781 662.472656 C 555.769531 670.464844 555.769531 670.464844 556.632812 663.550781 C 557.0625 659.878906 558.359375 656.640625 559.441406 656.640625 C 560.519531 656.640625 561.816406 659.878906 562.246094 663.550781 L 563.328125 670.679688 L 562.894531 663.121094 C 562.679688 657.71875 561.601562 655.34375 559.007812 654.910156 C 555.769531 654.265625 555.121094 655.558594 555.550781 662.472656 Z M 555.550781 662.472656 "/>
<path style=" stroke:none;fill-rule:nonzero;fill:rgb(0%,0%,0%);fill-opacity:1;" d="M 589.679688 655.992188 C 593.136719 657.503906 592.273438 660.527344 588.167969 661.609375 C 584.710938 662.472656 584.710938 662.6875 587.953125 662.902344 C 589.894531 662.902344 592.054688 664.847656 592.703125 666.792969 C 593.136719 668.953125 593.566406 667.441406 593.351562 663.335938 C 593.136719 659.230469 591.625 655.558594 590.113281 655.34375 C 588.601562 655.128906 588.382812 655.34375 589.679688 655.992188 Z M 589.679688 655.992188 "/>
<path style=" stroke:none;fill-rule:nonzero;fill:rgb(0%,0%,0%);fill-opacity:1;" d="M 607.390625 662.472656 C 607.609375 670.464844 607.609375 670.464844 608.472656 663.550781 C 608.902344 659.878906 610.199219 656.640625 611.28125 656.640625 C 612.359375 656.640625 613.65625 659.878906 614.089844 663.550781 L 615.167969 670.679688 L 614.734375 663.121094 C 614.519531 657.71875 613.441406 655.34375 610.847656 654.910156 C 607.609375 654.265625 606.960938 655.558594 607.390625 662.472656 Z M 607.390625 662.472656 "/>
<path style=" stroke:none;fill-rule:nonzero;fill:rgb(0%,0%,0%);fill-opacity:1;" d="M 629.640625 656.425781 C 628.992188 657.9375 629.640625 658.152344 631.585938 657.503906 C 634.175781 656.425781 635.039062 657.503906 635.039062 661.824219 C 635.039062 664.847656 633.960938 667.441406 632.664062 667.441406 C 631.367188 667.441406 630.9375 665.929688 631.585938 663.984375 C 632.230469 662.257812 632.015625 661.390625 630.71875 662.039062 C 626.832031 664.414062 628.558594 669.601562 633.097656 669.601562 C 636.769531 669.601562 637.414062 668.519531 636.769531 662.6875 C 636.121094 655.777344 632.230469 652.320312 629.640625 656.425781 Z M 629.640625 656.425781 "/>
<path style=" stroke:none;fill-rule:nonzero;fill:rgb(0%,0%,0%);fill-opacity:1;" d="M 651.023438 657.503906 C 649.078125 662.6875 651.023438 668.519531 655.128906 669.167969 C 657.070312 669.601562 658.800781 668.953125 658.800781 667.65625 C 658.800781 666.359375 657.289062 665.929688 655.558594 666.574219 C 653.183594 667.65625 652.320312 666.359375 652.320312 662.039062 C 652.320312 657.71875 653.183594 656.425781 655.777344 657.503906 C 657.503906 658.152344 658.367188 657.9375 657.71875 656.640625 C 655.777344 653.398438 652.320312 654.046875 651.023438 657.503906 Z M 651.023438 657.503906 "/>
<path style=" stroke:none;fill-rule:nonzero;fill:rgb(0%,0%,0%);fill-opacity:1;" d="M 672.625 657.503906 C 670.679688 662.472656 672.625 668.519531 676.078125 668.734375 C 678.023438 668.734375 678.238281 668.519531 676.726562 668.089844 C 672.40625 666.574219 673.488281 663.121094 678.238281 663.121094 C 680.617188 663.121094 682.558594 662.257812 682.558594 661.175781 C 682.558594 660.097656 680.617188 659.664062 678.238281 660.3125 C 675.863281 660.960938 673.921875 660.527344 673.921875 659.230469 C 673.921875 657.9375 675.648438 656.425781 677.808594 655.992188 C 681.265625 655.128906 681.265625 654.910156 677.59375 654.695312 C 675.433594 654.695312 673.273438 655.777344 672.625 657.503906 Z M 672.625 657.503906 "/>
<path style=" stroke:none;fill-rule:nonzero;fill:rgb(0%,0%,0%);fill-opacity:1;" d="M 694.007812 662.039062 C 694.007812 666.792969 694.441406 668.519531 694.871094 665.710938 C 695.304688 663.121094 695.304688 659.230469 694.871094 657.070312 C 694.222656 655.128906 693.792969 657.289062 694.007812 662.039062 Z M 694.007812 662.039062 "/>
<path style=" stroke:none;fill-rule:nonzero;fill:rgb(0%,0%,0%);fill-opacity:1;" d="M 699.191406 656.207031 C 700.488281 657.070312 702 660.742188 702.648438 664.199219 L 703.511719 670.679688 L 703.945312 663.550781 C 704.160156 655.128906 707.832031 654.265625 709.128906 662.472656 C 709.992188 668.304688 709.992188 668.304688 709.777344 662.039062 C 709.558594 656.425781 708.695312 655.558594 703.078125 655.128906 C 699.625 654.910156 697.679688 655.34375 699.191406 656.207031 Z M 699.191406 656.207031 "/>
<path style=" stroke:none;fill-rule:nonzero;fill:rgb(0%,0%,0%);fill-opacity:1;" d="M 724.464844 657.503906 C 722.519531 662.472656 724.464844 668.519531 727.921875 668.734375 C 729.863281 668.734375 730.078125 668.519531 728.566406 668.089844 C 724.464844 666.792969 725.113281 663.550781 729.648438 662.472656 C 733.105469 661.609375 733.105469 661.390625 729.648438 661.175781 C 727.488281 661.175781 725.761719 659.878906 725.761719 658.585938 C 725.761719 657.289062 727.273438 656.855469 729.214844 657.503906 C 730.945312 658.152344 731.808594 657.9375 731.160156 656.640625 C 729.214844 653.398438 725.761719 654.046875 724.464844 657.503906 Z M 724.464844 657.503906 "/>
<path style=" stroke:none;fill-rule:nonzero;fill:rgb(0%,0%,0%);fill-opacity:1;" d="M 745.847656 662.039062 C 745.847656 666.792969 746.28125 668.519531 746.710938 665.710938 C 747.144531 663.121094 747.144531 659.230469 746.710938 657.070312 C 746.0625 655.128906 745.632812 657.289062 745.847656 662.039062 Z M 745.847656 662.039062 "/>
<path style=" stroke:none;fill-rule:nonzero;fill:rgb(0%,0%,0%);fill-opacity:1;" d="M 750.601562 656.640625 C 751.246094 657.71875 752.328125 658.800781 752.976562 658.800781 C 753.40625 658.800781 753.839844 657.71875 753.839844 656.640625 C 753.839844 655.34375 752.761719 654.480469 751.464844 654.480469 C 750.382812 654.480469 749.953125 655.34375 750.601562 656.640625 Z M 750.601562 656.640625 "/>
<path style=" stroke:none;fill-rule:nonzero;fill:rgb(0%,0%,0%);fill-opacity:1;" d="M 521.425781 665.710938 C 521.425781 670.246094 522.503906 672.839844 523.585938 671.761719 C 524.449219 670.894531 524.449219 667.222656 523.152344 663.769531 C 520.992188 657.71875 520.992188 657.71875 521.425781 665.710938 Z M 521.425781 665.710938 "/>
<path style=" stroke:none;fill-rule:nonzero;fill:rgb(0%,0%,0%);fill-opacity:1;" d="M 570.671875 664.199219 C 570.671875 667.65625 571.105469 668.953125 571.753906 666.792969 C 572.183594 664.847656 572.183594 661.824219 571.753906 660.3125 C 571.105469 659.015625 570.671875 660.527344 570.671875 664.199219 Z M 570.671875 664.199219 "/>
<path style=" stroke:none;fill-rule:nonzero;fill:rgb(0%,0%,0%);fill-opacity:1;" d="M 584.710938 667.65625 C 586.222656 669.167969 587.953125 669.816406 588.601562 669.167969 C 589.246094 668.519531 588.167969 667.222656 586.007812 666.574219 C 582.984375 665.28125 582.769531 665.496094 584.710938 667.65625 Z M 584.710938 667.65625 "/>
</g>
</svg>
