<?xml version="1.0" standalone="no"?>
<!DOCTYPE svg PUBLIC "-//W3C//DTD SVG 20010904//EN"
 "http://www.w3.org/TR/2001/REC-SVG-20010904/DTD/svg10.dtd">
<svg version="1.0" xmlns="http://www.w3.org/2000/svg"
 width="24" height="24" viewBox="0 0 500.000000 500.000000"
 preserveAspectRatio="xMidYMid meet">

<g transform="translate(0.000000,500.000000) scale(0.100000,-0.100000)"
fill="#000000" stroke="none">
<path d="M1520 2276 l-145 -82 -5 -52 c-3 -29 -3 -52 -1 -52 7 0 284 151 294
160 5 4 7 30 5 58 l-3 51 -145 -83z"/>
<path d="M2200 2286 c0 -29 5 -38 30 -51 16 -8 32 -15 35 -15 3 0 5 21 3 48
-3 45 -4 47 -35 50 -32 3 -33 2 -33 -32z"/>
<path d="M2000 2278 c-11 -18 -20 -35 -20 -38 0 -4 54 -35 283 -163 l68 -38
-3 56 -3 57 -145 79 c-80 43 -148 79 -153 79 -4 0 -16 -15 -27 -32z"/>
<path d="M2440 2196 c0 -64 4 -106 10 -106 6 0 10 16 10 35 0 33 2 35 34 35
28 0 40 -7 62 -35 14 -19 31 -35 36 -35 6 0 -1 15 -15 33 l-25 33 24 27 c50
58 19 106 -74 114 l-62 6 0 -107z m125 64 c37 -41 -3 -90 -76 -90 -29 0 -29 1
-29 55 l0 55 43 0 c31 0 49 -6 62 -20z"/>
<path d="M2650 2195 l0 -105 75 0 c43 0 75 4 75 10 0 6 -28 10 -65 10 l-65 0
0 40 0 40 58 2 57 1 -55 6 -55 6 -3 38 -3 37 60 0 c34 0 61 4 61 10 0 6 -30
10 -70 10 l-70 0 0 -105z"/>
<path d="M2850 2195 c0 -63 4 -105 10 -105 6 0 10 33 10 80 0 44 3 80 8 80 4
-1 34 -36 67 -80 33 -43 63 -79 68 -79 4 -1 6 47 5 107 -2 102 -2 103 -5 25
-2 -46 -7 -83 -12 -83 -4 0 -36 36 -71 80 -35 44 -67 80 -71 80 -5 0 -9 -47
-9 -105z"/>
<path d="M3060 2290 c0 -5 16 -10 35 -10 l35 0 0 -95 c0 -57 4 -95 10 -95 6 0
10 38 10 95 l0 95 41 0 c24 0 38 4 34 10 -3 6 -42 10 -86 10 -46 0 -79 -4 -79
-10z"/>
<path d="M3340 2196 c0 -64 4 -106 10 -106 6 0 10 16 10 35 l0 35 48 0 c62 0
92 21 92 64 0 48 -29 69 -100 74 l-60 4 0 -106z m121 74 c12 -7 19 -21 19 -40
0 -37 -36 -63 -82 -58 -32 3 -33 4 -36 56 l-3 52 41 0 c23 0 50 -5 61 -10z"/>
<path d="M3561 2193 c1 -63 4 -93 8 -73 5 32 9 35 43 38 33 3 40 -1 60 -32 13
-20 29 -36 36 -36 8 0 2 14 -14 36 -26 33 -27 37 -10 46 24 14 35 48 24 80
-11 30 -51 48 -109 48 l-39 0 1 -107z m119 67 c42 -42 14 -83 -56 -84 l-49 -1
-3 53 -3 52 45 0 c33 0 52 -6 66 -20z"/>
<path d="M3815 2291 c-39 -16 -60 -51 -60 -98 0 -38 5 -49 33 -74 87 -78 221
17 168 120 -26 50 -89 73 -141 52z m106 -40 c31 -31 36 -59 17 -94 -17 -32
-39 -46 -75 -47 -45 0 -62 9 -78 41 -21 40 -19 63 11 98 35 42 84 43 125 2z"/>
<path d="M1936 2154 c-9 -20 -16 -37 -14 -39 10 -7 130 -75 134 -75 2 0 4 22
4 50 0 47 -1 50 -43 75 -24 14 -48 25 -54 25 -5 0 -17 -16 -27 -36z"/>
<path d="M2329 1974 c-3 -20 3 -59 9 -66 4 -4 7 9 6 28 -1 31 -12 60 -15 38z"/>
<path d="M1762 1925 c-1 -27 2 -45 6 -39 4 6 14 14 22 17 12 4 12 6 -2 6 -11
1 -18 12 -21 34 -3 23 -4 18 -5 -18z"/>
<path d="M1793 1946 c7 -14 13 -23 15 -21 7 6 -9 45 -18 45 -4 0 -3 -11 3 -24z"/>
<path d="M1944 1956 c-10 -26 0 -51 21 -51 16 0 20 7 20 30 0 33 -30 49 -41
21z m36 -21 c0 -16 -6 -25 -15 -25 -9 0 -15 9 -15 25 0 16 6 25 15 25 9 0 15
-9 15 -25z"/>
<path d="M2057 1963 c-4 -3 -7 -25 -6 -47 0 -23 3 -35 6 -28 2 6 11 12 19 12
8 0 14 4 14 10 0 5 -7 7 -15 4 -11 -5 -15 1 -15 21 0 20 4 26 16 21 8 -3 12
-2 9 4 -7 12 -19 13 -28 3z"/>
<path d="M2154 1956 c-9 -23 0 -51 16 -52 9 0 10 1 3 3 -19 6 -16 21 5 26 16
4 16 5 0 6 -10 0 -18 6 -18 12 0 6 7 8 16 5 8 -3 12 -2 9 4 -9 15 -25 12 -31
-4z"/>
<path d="M2250 1935 c0 -19 2 -35 4 -35 2 0 6 16 8 35 2 19 0 35 -4 35 -4 0
-8 -16 -8 -35z"/>
<path d="M2572 1933 c1 -37 1 -37 5 -5 2 17 8 32 13 32 5 0 11 -15 13 -32 l5
-33 -2 35 c-1 25 -6 36 -18 38 -15 3 -18 -3 -16 -35z"/>
<path d="M2730 1963 c16 -7 12 -21 -7 -26 -16 -4 -16 -5 -1 -6 9 0 19 -9 22
-18 2 -10 4 -3 3 16 -1 19 -8 36 -15 37 -7 1 -8 0 -2 -3z"/>
<path d="M2812 1933 c1 -37 1 -37 5 -5 2 17 8 32 13 32 5 0 11 -15 13 -32 l5
-33 -2 35 c-1 25 -6 36 -18 38 -15 3 -18 -3 -16 -35z"/>
<path d="M2915 1961 c-3 -7 0 -8 9 -5 12 5 16 0 16 -20 0 -14 -5 -26 -11 -26
-6 0 -8 7 -5 16 3 8 2 12 -4 9 -18 -11 -10 -35 11 -35 17 0 20 5 17 32 -3 32
-21 48 -33 29z"/>
<path d="M3014 1956 c-9 -24 0 -51 19 -54 9 -2 17 1 17 7 0 6 -7 8 -15 5 -11
-5 -15 1 -15 21 0 20 4 26 16 21 8 -3 12 -2 9 4 -9 15 -25 12 -31 -4z"/>
<path d="M3114 1956 c-9 -23 0 -51 16 -52 9 0 10 1 3 3 -20 7 -15 23 7 23 11
0 20 4 20 9 0 5 -9 7 -20 4 -11 -3 -20 -1 -20 5 0 6 8 13 18 15 16 4 16 5 -1
6 -10 0 -20 -5 -23 -13z"/>
<path d="M3213 1935 c0 -22 2 -30 4 -17 2 12 2 30 0 40 -3 9 -5 -1 -4 -23z"/>
<path d="M3237 1962 c6 -4 13 -21 16 -37 l4 -30 2 33 c1 39 18 43 24 5 4 -27
4 -27 3 2 -1 26 -5 30 -31 32 -16 1 -25 -1 -18 -5z"/>
<path d="M3354 1956 c-9 -23 0 -51 16 -52 9 0 10 1 3 3 -19 6 -16 21 5 26 16
4 16 5 0 6 -10 0 -18 6 -18 12 0 6 7 8 16 5 8 -3 12 -2 9 4 -9 15 -25 12 -31
-4z"/>
<path d="M3453 1935 c0 -22 2 -30 4 -17 2 12 2 30 0 40 -3 9 -5 -1 -4 -23z"/>
<path d="M3475 1960 c3 -5 8 -10 11 -10 2 0 4 5 4 10 0 6 -5 10 -11 10 -5 0
-7 -4 -4 -10z"/>
<path d="M2414 1918 c0 -21 5 -33 10 -28 4 4 4 21 -2 37 -10 28 -10 28 -8 -9z"/>
<path d="M2642 1925 c0 -16 2 -22 5 -12 2 9 2 23 0 30 -3 6 -5 -1 -5 -18z"/>
<path d="M2707 1909 c7 -7 15 -10 18 -7 3 3 -2 9 -12 12 -14 6 -15 5 -6 -5z"/>
</g>
</svg>
